<?xml version="1.0" standalone="no"?>
<!DOCTYPE svg PUBLIC "-//W3C//DTD SVG 20010904//EN"
 "http://www.w3.org/TR/2001/REC-SVG-20010904/DTD/svg10.dtd">
<svg version="1.0" xmlns="http://www.w3.org/2000/svg"
 width="1462.000000pt" height="955.000000pt" viewBox="0 0 1462.000000 955.000000"
 preserveAspectRatio="xMidYMid meet">
<metadata>
Created by potrace 1.16, written by Peter Selinger 2001-2019
</metadata>
<g transform="translate(0.000000,955.000000) scale(0.100000,-0.100000)"
fill="#000000" stroke="none">
<path d="M7075 9372 c-2 -2 -50 -8 -107 -12 -136 -12 -173 -18 -373 -62 -113
-24 -167 -39 -179 -50 -6 -4 -19 -8 -30 -8 -12 -1 -52 -12 -91 -26 -38 -14
-84 -29 -102 -35 -18 -5 -35 -14 -38 -19 -4 -6 -15 -10 -26 -10 -17 0 -241
-107 -330 -157 -97 -56 -197 -119 -225 -142 -18 -14 -54 -42 -82 -61 -28 -19
-53 -41 -56 -48 -7 -15 -7 -15 94 53 144 97 337 200 505 269 137 57 154 64
233 90 40 13 76 26 79 30 4 3 16 6 28 6 12 0 25 3 29 7 4 4 37 15 74 24 37 9
92 23 122 31 50 14 84 21 215 48 49 10 169 26 291 40 50 5 182 11 295 11 164
1 191 3 139 11 -64 8 -458 17 -465 10z"/>
<path d="M7320 9164 c-168 -15 -311 -37 -466 -68 -188 -38 -407 -96 -446 -117
-10 -5 -27 -9 -37 -9 -11 0 -23 -4 -26 -10 -3 -5 -17 -10 -30 -10 -13 0 -27
-4 -30 -10 -3 -5 -17 -10 -30 -10 -13 0 -26 -4 -29 -9 -3 -4 -26 -14 -51 -21
-25 -7 -48 -17 -51 -21 -3 -5 -13 -9 -24 -9 -10 0 -44 -13 -75 -30 -31 -16
-63 -30 -69 -30 -18 0 -262 -122 -376 -188 -90 -52 -276 -176 -367 -245 -179
-137 -360 -320 -459 -467 -20 -30 -40 -57 -44 -60 -14 -10 -110 -210 -136
-282 -39 -111 -41 -146 -5 -72 17 34 38 67 46 74 8 7 15 16 15 21 0 14 41 69
117 159 176 209 364 375 615 541 49 32 92 59 94 59 3 0 24 13 47 28 23 15 56
34 72 42 17 8 44 24 60 36 37 26 207 112 296 149 35 15 91 38 124 52 134 56
306 116 495 173 58 17 119 36 136 41 17 5 40 9 52 9 11 0 23 4 26 9 3 4 25 11
48 14 39 6 69 12 198 38 225 46 442 68 720 74 326 8 669 -35 897 -111 39 -13
77 -24 83 -24 6 0 39 -13 73 -28 34 -16 87 -40 117 -52 30 -13 65 -33 78 -44
12 -11 22 -14 22 -8 0 7 -27 31 -61 55 -33 23 -76 54 -93 69 -42 35 -260 144
-351 175 -332 114 -759 157 -1175 117z"/>
<path d="M7605 8615 c-178 -16 -320 -37 -513 -75 -155 -30 -341 -75 -377 -90
-11 -5 -45 -14 -75 -21 -30 -7 -59 -16 -65 -21 -5 -4 -19 -8 -31 -8 -13 0 -26
-4 -29 -10 -3 -5 -17 -10 -30 -10 -13 0 -27 -4 -30 -10 -3 -5 -15 -10 -26 -10
-10 0 -27 -4 -37 -9 -41 -21 -101 -45 -157 -62 -33 -11 -78 -28 -100 -39 -22
-11 -78 -36 -125 -56 -150 -65 -380 -183 -442 -226 -14 -10 -29 -18 -33 -18
-11 0 -326 -216 -397 -272 -207 -164 -331 -287 -459 -458 -152 -201 -256 -432
-289 -642 -12 -74 -10 -163 6 -346 7 -72 24 -111 24 -53 0 37 28 188 40 216 5
11 16 43 25 70 39 122 159 332 269 470 144 181 423 428 668 593 170 114 473
280 663 363 33 15 92 40 130 57 39 17 97 41 130 53 288 103 505 170 605 186
19 3 40 9 45 13 6 4 80 22 165 38 147 29 200 38 358 62 92 13 280 30 437 38
225 12 612 -12 759 -47 22 -6 43 -8 47 -5 4 2 18 0 31 -5 13 -5 48 -14 78 -21
60 -13 183 -47 215 -60 11 -4 43 -16 70 -25 71 -25 311 -143 325 -160 7 -8 17
-15 22 -15 28 0 251 -209 295 -276 11 -16 11 -15 3 7 -13 40 -98 206 -128 253
-50 76 -154 196 -196 225 -22 16 -50 38 -60 50 -11 11 -25 21 -31 21 -7 0 -19
7 -26 16 -7 9 -22 20 -34 25 -11 5 -33 18 -50 29 -76 48 -271 131 -375 160
-25 7 -56 16 -70 20 -14 5 -50 14 -80 20 -30 7 -71 16 -90 20 -221 54 -715 75
-1055 45z"/>
<path d="M7949 7766 c-2 -3 -49 -8 -104 -11 -55 -4 -106 -8 -114 -11 -7 -2
-41 -7 -75 -10 -63 -6 -167 -23 -296 -49 -41 -8 -100 -20 -130 -26 -30 -6 -66
-15 -80 -19 -14 -5 -56 -16 -95 -25 -38 -9 -81 -20 -95 -25 -14 -4 -52 -16
-85 -25 -106 -30 -219 -67 -245 -80 -14 -7 -40 -16 -57 -20 -18 -3 -35 -11
-38 -16 -4 -5 -14 -9 -24 -9 -10 0 -31 -6 -47 -14 -50 -24 -172 -76 -179 -76
-10 0 -361 -177 -443 -223 -255 -145 -507 -334 -702 -526 -135 -134 -270 -288
-270 -309 0 -5 -9 -17 -20 -27 -11 -10 -20 -24 -20 -30 0 -7 -7 -18 -15 -25
-26 -22 -127 -243 -157 -345 -24 -81 -31 -126 -35 -236 -6 -147 0 -193 44
-317 24 -70 113 -239 167 -318 30 -44 32 -38 10 26 -61 171 -57 397 10 587 26
74 122 261 149 291 10 10 17 23 17 29 0 5 9 18 20 28 11 10 20 22 20 27 0 28
238 287 375 409 126 111 363 277 537 375 46 25 90 52 98 58 8 6 85 44 170 85
207 99 248 117 295 134 22 9 76 29 120 45 44 16 116 42 160 57 44 15 89 31
100 36 20 8 41 14 270 74 144 38 358 83 450 95 207 28 316 39 435 44 74 4 151
9 172 12 42 6 383 -12 503 -26 456 -56 827 -209 1068 -439 61 -58 153 -187
192 -269 12 -26 28 -73 35 -105 8 -32 17 -60 22 -63 15 -9 -3 258 -24 361 -21
104 -66 209 -128 301 -37 54 -217 234 -233 234 -6 0 -22 11 -36 24 -15 13 -53
38 -86 56 -33 18 -64 36 -70 40 -5 4 -50 24 -100 44 -49 21 -106 44 -125 53
-19 8 -81 28 -138 44 -296 83 -504 109 -887 109 -155 0 -284 -2 -286 -4z"/>
<path d="M8160 6769 c-183 -9 -240 -13 -350 -30 -354 -52 -673 -136 -987 -259
-29 -11 -74 -28 -100 -38 -78 -30 -287 -131 -398 -192 -319 -174 -593 -387
-805 -625 -126 -142 -234 -331 -290 -510 -27 -85 -31 -115 -32 -206 0 -133 8
-195 38 -277 44 -123 149 -267 254 -349 70 -55 259 -183 270 -183 5 0 -26 35
-68 78 -91 92 -142 171 -175 273 -87 263 9 580 271 891 115 137 317 311 492
423 41 26 87 56 102 67 15 10 38 23 50 28 13 5 41 21 63 35 37 23 218 114 330
165 94 43 301 117 460 164 50 15 104 31 121 37 17 5 40 9 52 9 11 0 23 4 26 8
3 5 38 14 78 21 40 7 89 16 108 21 81 19 193 35 432 60 276 29 746 -7 926 -71
29 -11 61 -19 72 -19 33 0 255 -103 339 -158 58 -37 153 -114 177 -142 111
-131 156 -220 184 -367 17 -84 5 -227 -25 -318 -11 -33 39 56 59 105 10 25 24
59 31 75 61 144 86 323 65 464 -8 47 -22 101 -32 119 -10 18 -18 40 -18 50 0
9 -9 28 -20 42 -11 14 -20 31 -20 38 0 6 -3 12 -8 12 -4 0 -13 14 -20 30 -14
30 -198 220 -214 220 -4 0 -30 15 -56 33 -159 112 -446 212 -727 252 -110 17
-375 36 -450 33 -22 -1 -114 -5 -205 -9z"/>
<path d="M8149 5766 c-2 -2 -41 -7 -87 -10 -78 -6 -237 -28 -292 -40 -180 -39
-380 -94 -465 -126 -84 -32 -118 -45 -170 -67 -91 -38 -285 -132 -333 -162
-131 -79 -277 -181 -349 -243 -97 -82 -241 -233 -254 -265 -5 -13 -13 -23 -18
-23 -5 0 -13 -9 -16 -20 -3 -11 -12 -26 -19 -32 -25 -25 -77 -142 -101 -225
-48 -166 -26 -330 65 -462 37 -55 177 -191 196 -191 5 0 25 -10 44 -22 78 -49
211 -99 347 -132 122 -29 259 -46 348 -45 l60 1 -80 15 c-233 42 -439 144
-540 267 -99 122 -128 309 -70 454 90 222 237 385 515 570 90 60 330 181 419
211 36 12 74 27 85 34 12 6 41 17 66 24 25 6 70 19 100 28 93 28 180 47 292
64 31 5 60 11 65 14 12 7 283 21 373 18 75 -2 175 -12 280 -30 121 -21 302
-85 346 -123 11 -10 25 -18 30 -18 6 0 42 -32 82 -70 98 -97 142 -186 149
-302 4 -67 1 -97 -17 -157 -24 -81 -51 -139 -87 -188 -12 -17 -23 -34 -23 -37
0 -16 -99 -133 -166 -195 -42 -39 -73 -71 -70 -71 16 0 184 134 281 225 52 48
155 168 155 180 0 6 11 22 24 34 23 22 116 197 116 220 0 6 4 19 9 29 18 35
31 115 31 189 0 163 -80 316 -225 433 -145 116 -390 202 -670 236 -109 12
-416 20 -426 10z"/>
<path d="M8005 4840 c-16 -4 -48 -8 -69 -9 -22 0 -53 -5 -70 -10 -17 -5 -51
-15 -76 -21 -303 -77 -564 -229 -698 -408 -44 -60 -76 -144 -80 -213 -4 -57 0
-73 26 -125 17 -32 43 -71 59 -85 37 -35 131 -83 212 -109 115 -36 390 -37
551 -1 25 5 65 14 90 20 70 15 167 48 218 74 26 13 78 39 116 58 132 65 317
219 356 295 8 16 19 36 26 44 18 23 44 123 44 169 0 23 -11 64 -25 94 -56 117
-173 186 -376 222 -88 15 -253 18 -304 5z m225 -330 c67 -34 110 -69 110 -90
0 -10 5 -22 10 -25 22 -14 3 -118 -28 -155 -7 -8 -24 -30 -39 -48 -96 -122
-387 -232 -583 -219 -147 10 -236 51 -276 128 -71 139 144 355 416 418 147 34
314 30 390 -9z"/>
<path d="M10875 2861 c-107 -28 -175 -113 -175 -218 1 -122 105 -223 230 -223
150 0 265 153 219 291 -37 109 -165 179 -274 150z"/>
<path d="M12473 2798 c-6 -7 -42 -74 -80 -148 -39 -74 -82 -155 -95 -180 -14
-25 -51 -94 -83 -155 -32 -60 -112 -211 -178 -335 -65 -124 -142 -268 -170
-320 -27 -52 -62 -117 -77 -145 -15 -27 -50 -93 -77 -145 -28 -52 -89 -167
-135 -255 -190 -358 -210 -396 -205 -401 3 -3 356 -7 466 -4 5 0 39 62 77 137
37 76 74 146 82 156 14 16 50 17 488 17 366 0 476 -3 484 -12 6 -7 44 -76 84
-153 l73 -140 234 -5 c129 -3 237 -4 242 -2 4 2 -17 49 -47 105 -29 56 -73
138 -96 182 -37 71 -208 392 -337 635 -58 109 -117 219 -158 295 -18 33 -58
110 -90 170 -32 61 -90 171 -130 245 -40 74 -98 185 -130 245 -130 247 -123
237 -142 213z m148 -1128 c70 -140 125 -258 122 -262 -6 -11 -501 -10 -507 1
-3 5 48 120 114 255 66 135 120 251 120 257 0 40 41 -28 151 -251z"/>
<path d="M705 2771 c-113 -22 -167 -41 -277 -98 -149 -76 -214 -149 -263 -298
-46 -136 -36 -322 22 -439 43 -84 148 -184 265 -249 86 -48 192 -78 498 -142
245 -52 295 -66 366 -106 60 -34 81 -61 90 -117 16 -104 -62 -194 -205 -238
-63 -19 -261 -18 -347 2 -159 37 -371 128 -463 200 -35 27 -47 31 -58 22 -8
-6 -47 -59 -87 -117 -39 -58 -87 -128 -106 -154 l-35 -48 25 -20 c92 -72 333
-209 369 -209 6 0 19 -4 29 -9 23 -12 77 -26 202 -53 91 -20 132 -23 305 -22
215 2 285 11 409 57 251 94 385 270 401 528 12 195 -34 332 -152 447 -96 94
-198 140 -438 198 -289 69 -359 84 -376 84 -44 0 -210 64 -246 95 -82 70 -74
179 18 240 111 73 317 84 529 27 62 -16 200 -81 261 -123 33 -22 66 -39 72
-36 15 6 229 296 234 317 8 36 -269 190 -418 234 -166 48 -451 60 -624 27z"/>
<path d="M13912 1735 l3 -1026 205 0 205 0 3 1026 2 1025 -210 0 -210 0 2
-1025z"/>
<path d="M5880 2491 c0 -162 -3 -201 -15 -211 -9 -8 -41 -11 -92 -9 l-78 4 0
-180 0 -180 90 -5 90 -5 5 -495 5 -495 28 -57 c69 -140 192 -188 479 -188 84
0 163 3 176 6 22 6 22 8 22 180 l0 174 -98 0 c-97 0 -99 1 -135 33 -61 54 -67
95 -67 499 l0 347 153 3 152 3 3 178 c2 138 0 177 -10 178 -7 0 -69 0 -138 -1
-69 -1 -133 2 -142 5 -16 7 -18 26 -18 211 l0 204 -205 0 -205 0 0 -199z"/>
<path d="M4655 2270 c-97 -16 -203 -60 -265 -111 -52 -43 -60 -39 -60 31 l0
60 -204 0 c-177 0 -205 -2 -210 -16 -3 -9 -6 -350 -6 -759 0 -602 3 -746 13
-757 10 -10 57 -12 210 -10 l197 3 0 457 c1 531 4 560 74 655 30 42 117 95
175 109 39 9 66 9 115 0 128 -24 185 -75 225 -201 7 -23 11 -200 11 -527 l0
-493 206 -3 c154 -2 208 0 216 9 7 9 8 185 5 530 -5 552 -8 584 -59 713 -57
145 -167 243 -323 289 -79 23 -244 34 -320 21z"/>
<path d="M7451 2269 c-162 -32 -326 -134 -429 -266 -35 -45 -104 -172 -116
-213 -29 -104 -36 -139 -44 -219 -26 -256 49 -497 208 -664 151 -161 317 -228
565 -228 108 0 130 3 213 31 100 33 158 64 209 112 17 17 36 27 41 24 6 -3 8
-31 5 -65 -4 -37 -2 -61 6 -65 6 -4 97 -7 203 -7 l193 0 5 761 c3 419 2 766
-1 771 -3 6 -90 8 -205 7 l-199 -3 0 -62 c-1 -34 -4 -65 -7 -69 -4 -3 -27 11
-51 32 -62 54 -164 102 -253 120 -82 15 -272 17 -343 3z m359 -363 c152 -36
256 -145 295 -308 28 -117 13 -253 -37 -351 -29 -58 -110 -135 -171 -162 -106
-49 -278 -55 -373 -14 -185 79 -279 257 -252 479 21 178 135 316 293 355 67
17 177 17 245 1z"/>
<path d="M1948 2244 c-4 -3 16 -56 44 -117 27 -62 86 -192 130 -291 44 -98 90
-202 103 -230 12 -28 32 -71 43 -96 47 -107 66 -148 89 -200 14 -30 42 -93 63
-140 39 -88 60 -135 136 -302 24 -54 44 -101 44 -105 0 -5 -25 -67 -56 -138
-30 -72 -73 -175 -96 -230 -40 -100 -68 -165 -94 -219 -8 -16 -14 -33 -14 -38
0 -4 103 -8 228 -8 l229 0 93 233 c52 127 104 255 116 282 12 28 65 156 117
285 241 598 387 956 397 972 5 10 10 22 10 28 0 6 10 32 21 58 69 154 100 235
95 249 -4 10 -57 13 -228 13 -123 0 -228 -4 -235 -8 -7 -4 -32 -64 -57 -132
-39 -111 -64 -179 -138 -380 -11 -30 -24 -64 -28 -75 -5 -11 -20 -51 -33 -90
-14 -38 -40 -108 -57 -155 -18 -47 -35 -95 -37 -107 -3 -13 -11 -23 -17 -23
-7 0 -47 89 -90 198 -43 108 -82 208 -88 222 -6 14 -15 35 -19 48 -5 12 -13
33 -19 47 -5 14 -14 36 -20 50 -5 14 -14 36 -20 50 -5 14 -14 35 -19 48 -4 12
-13 34 -20 50 -19 47 -28 69 -62 157 -18 47 -37 88 -43 92 -13 9 -460 11 -468
2z"/>
<path d="M8767 2244 c-3 -4 57 -90 135 -193 78 -102 190 -249 248 -326 59 -77
126 -165 148 -195 23 -30 40 -61 37 -67 -4 -11 -72 -102 -409 -543 -44 -58
-97 -127 -119 -154 -21 -27 -34 -52 -30 -55 4 -3 122 -4 260 -1 l253 5 137
196 c178 253 176 250 188 241 6 -4 75 -101 154 -217 79 -116 147 -214 151
-218 7 -8 510 -10 518 -3 2 2 -123 169 -278 370 -154 202 -283 372 -285 379
-3 7 127 183 289 392 161 209 291 383 289 388 -2 4 -116 7 -253 7 -193 0 -252
-3 -262 -13 -7 -8 -82 -113 -167 -235 -85 -122 -158 -222 -162 -222 -5 0 -28
28 -52 63 -24 34 -99 140 -166 235 l-122 172 -248 0 c-136 0 -250 -3 -254 -6z"/>
<path d="M10727 2244 c-11 -11 -8 -1522 3 -1529 5 -3 98 -6 207 -6 l198 -1 0
769 0 768 -201 3 c-110 1 -203 -1 -207 -4z"/>
</g>
</svg>
