<?xml version="1.0" standalone="no"?>
<!DOCTYPE svg PUBLIC "-//W3C//DTD SVG 20010904//EN"
 "http://www.w3.org/TR/2001/REC-SVG-20010904/DTD/svg10.dtd">
<svg version="1.0" xmlns="http://www.w3.org/2000/svg"
 width="2098.000000pt" height="333.000000pt" viewBox="0 0 2098.000000 333.000000"
 preserveAspectRatio="xMidYMid meet">
<metadata>
Created by potrace 1.16, written by Peter Selinger 2001-2019
</metadata>
<g transform="translate(0.000000,333.000000) scale(0.100000,-0.100000)"
fill="#000000" stroke="none">
<path d="M16606 3225 c-141 -50 -207 -215 -138 -346 124 -238 485 -151 486
118 0 51 -5 70 -30 109 -69 113 -200 161 -318 119z"/>
<path d="M1116 3031 c-187 -88 -348 -166 -358 -175 -17 -15 -18 -36 -18 -286
l0 -270 -175 -145 -175 -145 0 -345 0 -345 175 -145 175 -146 0 -270 c0 -248
1 -270 18 -285 35 -30 696 -324 728 -324 23 0 81 32 225 127 107 69 199 126
204 126 6 0 95 -57 198 -127 110 -75 200 -129 219 -132 27 -5 94 22 378 151
190 86 353 164 363 172 15 15 17 42 17 289 l0 274 175 145 175 145 0 345 0
345 -175 145 -175 145 0 268 c0 200 -3 272 -12 284 -19 23 -698 328 -731 328
-36 0 -35 1 -245 -137 -98 -64 -182 -116 -188 -116 -6 0 -95 57 -198 127 -138
95 -197 129 -224 132 -31 3 -92 -22 -376 -155z m529 -261 l165 -110 0 -445 0
-445 -62 0 c-78 0 -121 -23 -138 -74 -10 -31 -9 -42 7 -73 23 -48 53 -63 131
-63 l62 0 0 -445 0 -445 -165 -110 c-90 -60 -170 -110 -177 -110 -7 0 -112 47
-233 104 l-220 103 -3 186 -2 186 39 21 c48 24 61 45 61 100 0 33 -6 48 -30
72 -32 31 -33 31 -140 16 -8 -1 -73 45 -142 102 l-128 105 0 58 0 57 60 0 c98
0 140 32 140 105 0 73 -42 105 -140 105 l-60 0 0 58 0 57 131 104 131 103 38
-11 c58 -17 80 -13 111 20 53 57 35 145 -38 175 l-33 14 2 191 3 191 220 104
c121 57 226 104 233 104 7 0 87 -50 177 -110z m950 6 l220 -104 3 -186 2 -185
-39 -21 c-48 -24 -61 -45 -61 -99 0 -28 8 -48 27 -71 25 -31 29 -32 77 -26 28
4 58 8 66 9 8 1 73 -46 142 -103 l128 -105 0 -57 0 -58 -60 0 c-98 0 -140 -32
-140 -105 0 -73 42 -105 140 -105 l60 0 0 -57 -1 -58 -130 -104 c-129 -102
-132 -104 -163 -93 -53 19 -85 15 -117 -17 -23 -24 -29 -38 -29 -73 0 -52 21
-85 67 -104 l33 -14 -2 -187 -3 -187 -228 -108 -228 -108 -167 112 -167 113
-3 443 -2 442 60 0 c76 0 117 20 136 67 12 28 13 42 3 70 -16 50 -59 73 -136
73 l-63 0 0 445 0 445 163 109 c89 60 169 110 177 110 8 0 114 -46 235 -103z"/>
<path d="M1243 2660 c-38 -16 -56 -55 -50 -108 5 -44 11 -53 105 -142 l99 -95
2 -94 2 -93 -140 -142 -141 -142 0 -179 0 -179 140 -141 139 -141 -2 -96 -2
-96 -88 -82 c-103 -96 -121 -127 -114 -184 8 -55 44 -86 99 -86 40 0 47 6 175
132 l133 132 0 186 0 185 -140 140 -141 140 2 91 1 92 139 138 139 139 0 185
0 185 -128 128 c-114 114 -133 129 -168 133 -21 2 -49 0 -61 -6z"/>
<path d="M2500 2664 c-8 -4 -72 -63 -142 -132 l-128 -127 0 -184 0 -185 139
-141 139 -140 1 -90 2 -90 -141 -140 -140 -140 0 -185 0 -186 133 -132 c128
-126 135 -132 175 -132 55 0 91 31 99 86 7 57 -11 88 -114 184 l-88 82 -2 96
-2 96 139 141 140 141 0 179 0 179 -141 142 -140 142 2 93 2 94 89 85 c49 46
96 96 104 112 36 71 2 146 -71 153 -22 3 -47 2 -55 -1z"/>
<path d="M18418 3119 c-20 -35 -79 -145 -131 -244 -52 -99 -186 -351 -297
-560 -616 -1161 -792 -1496 -786 -1503 4 -4 123 -9 265 -10 l256 -4 47 84 c25
45 65 120 87 165 22 45 50 87 60 93 13 6 200 10 545 10 507 0 526 -1 543 -19
10 -11 53 -87 95 -169 l78 -149 137 -6 c163 -8 403 -9 403 -2 0 15 -126 255
-688 1310 -167 315 -369 695 -481 907 -34 65 -70 127 -80 140 l-18 22 -35 -65z
m90 -1031 c46 -84 220 -439 235 -480 5 -14 -8 -17 -101 -24 -107 -7 -450 1
-460 11 -3 3 5 32 19 64 40 96 244 521 250 521 3 0 29 -42 57 -92z"/>
<path d="M5145 3135 c-113 -21 -195 -50 -305 -106 -173 -88 -259 -180 -310
-333 -60 -181 -39 -422 49 -550 67 -97 192 -200 315 -257 87 -40 194 -70 488
-134 139 -31 278 -63 308 -72 80 -22 187 -81 212 -116 32 -45 36 -131 10 -184
-40 -77 -140 -142 -252 -163 -67 -13 -215 -13 -305 0 -144 21 -412 127 -544
215 -38 25 -75 45 -83 45 -14 0 -41 -35 -197 -259 -83 -119 -88 -98 49 -188
198 -131 333 -188 565 -238 116 -26 128 -26 390 -22 256 3 274 5 355 30 286
87 451 240 510 472 62 244 17 478 -123 631 -121 133 -259 191 -692 288 -137
31 -269 61 -293 66 -276 63 -382 221 -235 349 60 54 147 81 279 88 215 12 396
-37 610 -163 50 -30 95 -54 101 -54 9 0 166 204 232 303 18 26 31 55 29 65 -4
23 -119 99 -245 161 -232 115 -305 131 -613 137 -171 3 -244 0 -305 -11z"/>
<path d="M20070 1960 l0 -1160 235 0 235 0 0 1160 0 1160 -235 0 -235 0 0
-1160z"/>
<path d="M10988 2815 c-2 -187 -6 -227 -18 -235 -8 -5 -54 -10 -102 -10 l-88
0 0 -199 c0 -172 2 -200 16 -205 9 -3 53 -6 98 -6 l83 0 6 -142 c4 -79 7 -330
7 -559 l0 -416 32 -63 c85 -170 214 -220 569 -220 166 0 179 1 189 19 6 12 10
94 10 199 l0 179 -110 6 c-98 5 -113 8 -144 32 -19 14 -42 41 -51 60 -25 53
-34 210 -35 573 l0 332 138 0 c75 0 154 3 175 6 l37 7 -2 196 -3 196 -163 3
-163 2 -9 26 c-6 14 -10 120 -10 235 l0 209 -229 0 -229 0 -4 -225z"/>
<path d="M12835 2574 c-243 -23 -483 -178 -610 -394 -90 -155 -130 -313 -128
-520 2 -273 89 -490 269 -665 163 -159 344 -225 613 -225 175 0 332 50 453
145 31 25 59 45 62 45 3 0 6 -33 6 -74 l0 -74 73 -7 c39 -3 142 -5 227 -3
l155 3 3 868 2 867 -227 -2 -228 -3 -3 -72 c-2 -40 -5 -73 -9 -73 -3 0 -32 20
-64 44 -74 56 -172 102 -252 121 -64 14 -271 26 -342 19z m334 -419 c84 -20
147 -56 209 -116 62 -63 97 -127 122 -225 49 -190 5 -380 -114 -500 -63 -62
-135 -101 -225 -120 -185 -39 -348 4 -466 121 -92 93 -135 205 -135 355 0 195
72 342 212 431 99 64 261 86 397 54z"/>
<path d="M9534 2550 c-82 -21 -158 -57 -225 -106 -26 -19 -52 -34 -58 -34 -7
0 -11 24 -11 65 l0 65 -232 -2 -233 -3 -8 -95 c-10 -125 -4 -1616 6 -1627 5
-4 111 -8 235 -8 l227 0 5 550 c5 481 8 556 23 601 22 67 65 125 123 165 103
70 199 85 316 49 81 -25 138 -73 175 -148 l28 -57 5 -580 5 -580 225 -2 c131
-2 231 1 240 7 20 13 25 393 11 880 -12 397 -17 433 -82 568 -75 156 -223 265
-404 297 -114 20 -283 18 -371 -5z"/>
<path d="M6546 2518 c3 -13 168 -385 366 -828 198 -443 362 -810 365 -816 4
-10 -201 -513 -266 -654 -11 -25 -21 -51 -21 -57 0 -10 58 -13 258 -13 l257 0
112 278 c61 152 211 522 333 822 207 510 285 699 446 1093 36 87 64 165 62
175 -3 15 -26 17 -261 20 l-258 2 -23 -52 c-13 -29 -62 -159 -109 -288 -195
-537 -269 -735 -277 -744 -14 -14 -48 64 -244 557 -102 257 -193 481 -201 497
l-16 30 -265 0 -265 0 7 -22z"/>
<path d="M14260 2519 c11 -19 142 -194 489 -653 107 -141 142 -194 139 -211
-4 -19 -102 -150 -545 -732 -40 -52 -73 -101 -73 -109 0 -12 30 -14 173 -13
94 1 224 4 288 8 l117 6 147 210 c170 242 204 287 214 281 4 -3 83 -115 176
-249 l169 -244 115 -7 c138 -8 429 -6 453 3 15 5 -31 71 -249 356 -379 498
-368 482 -355 509 5 12 86 123 178 245 93 122 236 311 318 419 l148 197 -273
3 c-151 1 -283 0 -294 -3 -11 -3 -38 -31 -61 -62 -22 -32 -105 -149 -184 -260
-99 -141 -146 -200 -154 -194 -7 6 -92 125 -191 265 l-180 255 -288 1 c-288 0
-288 0 -277 -21z"/>
<path d="M16465 2455 c-10 -115 -2 -1632 9 -1642 4 -4 109 -10 232 -11 l224
-4 0 871 0 871 -229 0 -229 0 -7 -85z"/>
</g>
</svg>
