<?xml version="1.0" standalone="no"?>
<!DOCTYPE svg PUBLIC "-//W3C//DTD SVG 20010904//EN"
 "http://www.w3.org/TR/2001/REC-SVG-20010904/DTD/svg10.dtd">
<svg version="1.0" xmlns="http://www.w3.org/2000/svg"
 width="300.000000pt" height="169.000000pt" viewBox="0 0 300.000000 169.000000"
 preserveAspectRatio="xMidYMid meet">
<metadata>
Created by potrace 1.10, written by Peter Selinger 2001-2011
</metadata>
<g transform="translate(0.000000,169.000000) scale(0.100000,-0.100000)"
fill="#000000" stroke="none">
<path d="M1430 1659 c-63 -10 -187 -68 -216 -100 -13 -15 -4 -12 29 11 57 38
167 79 217 81 19 0 46 5 60 9 24 8 24 8 -5 8 -16 0 -55 -4 -85 -9z"/>
<path d="M1413 1610 c-171 -45 -290 -132 -332 -243 -15 -40 -6 -33 23 18 71
121 289 218 487 218 82 0 104 -4 155 -26 47 -22 54 -23 36 -8 -71 60 -229 78
-369 41z"/>
<path d="M1530 1541 c-128 -18 -284 -85 -369 -158 -62 -52 -101 -126 -100
-188 l0 -50 13 47 c68 251 621 409 809 231 38 -36 40 -36 23 -8 -33 54 -69 85
-122 104 -61 23 -175 33 -254 22z"/>
<path d="M1511 1395 c-158 -35 -305 -119 -370 -210 -44 -62 -53 -133 -24 -189
l19 -38 -4 59 c-3 52 0 63 29 106 58 88 203 175 350 211 83 20 229 21 297 1
62 -19 118 -65 132 -109 9 -28 9 -26 6 18 -5 63 -29 95 -101 131 -54 27 -71
30 -165 32 -64 2 -130 -3 -169 -12z"/>
<path d="M1595 1251 c-86 -14 -137 -31 -215 -72 -123 -63 -190 -140 -190 -217
0 -48 19 -83 62 -113 l29 -21 -26 37 c-31 46 -31 66 -4 123 44 91 199 178 359
201 172 26 309 -41 294 -144 l-4 -30 15 30 c35 73 5 142 -78 180 -59 28 -163
38 -242 26z"/>
<path d="M1553 1081 c-70 -19 -135 -53 -182 -95 -32 -28 -59 -91 -53 -121 9
-51 93 -96 172 -94 32 1 31 2 -11 9 -154 26 -138 144 30 224 58 27 76 31 153
31 72 0 91 -3 115 -21 49 -37 44 -91 -14 -149 -33 -33 -34 -35 -8 -17 44 30
72 62 90 105 13 32 13 41 1 70 -28 69 -158 94 -293 58z"/>
<path d="M1545 930 c-72 -36 -93 -80 -54 -116 45 -41 179 -11 228 52 26 33 26
39 1 64 -27 27 -119 27 -175 0z m121 -34 c15 -12 17 -18 8 -33 -24 -40 -109
-58 -134 -28 -16 19 1 42 45 61 39 17 57 17 81 0z"/>
<path d="M2067 639 c-21 -12 -22 -42 -3 -58 20 -16 56 3 56 29 0 25 -30 41
-53 29z"/>
<path d="M2237 472 c-48 -91 -86 -166 -85 -167 2 -1 20 0 41 3 29 3 41 10 47
28 9 22 15 24 84 24 71 0 76 -1 89 -26 11 -20 22 -27 50 -29 21 -1 37 0 37 2
0 3 -169 324 -174 329 0 1 -40 -73 -89 -164z m110 -9 c9 -21 19 -41 21 -45 2
-5 -17 -8 -42 -8 l-46 0 22 45 c12 25 23 45 25 45 1 0 10 -17 20 -37z"/>
<path d="M460 623 c-62 -23 -81 -104 -35 -147 14 -14 50 -29 85 -36 33 -7 68
-19 77 -26 17 -13 17 -15 -6 -34 -29 -25 -54 -25 -111 1 l-44 20 -18 -23 c-17
-22 -17 -24 3 -40 45 -37 148 -49 199 -23 36 19 50 43 50 90 0 53 -32 79 -113
95 -76 14 -102 34 -72 56 25 19 69 18 107 -2 30 -16 32 -15 49 7 10 13 15 27
12 32 -17 28 -136 47 -183 30z"/>
<path d="M2550 468 l0 -163 31 1 31 1 1 161 2 162 -32 0 -33 0 0 -162z"/>
<path d="M1290 585 c0 -24 -5 -35 -15 -35 -10 0 -15 -10 -15 -31 0 -24 4 -30
15 -25 13 4 15 -8 15 -74 0 -96 16 -120 80 -120 38 0 40 2 40 30 0 25 -4 30
-25 30 -24 0 -25 2 -25 70 0 70 0 70 25 64 23 -6 25 -3 25 25 0 26 -4 31 -25
31 -22 0 -25 4 -25 35 0 33 -2 35 -35 35 -33 0 -35 -2 -35 -35z"/>
<path d="M680 547 c0 -3 23 -56 50 -118 l51 -113 -17 -40 c-9 -23 -18 -46 -21
-53 -3 -8 7 -11 32 -10 l37 3 68 167 68 167 -37 0 -38 0 -30 -81 -29 -81 -30
79 c-29 77 -30 78 -67 81 -20 2 -37 1 -37 -1z"/>
<path d="M990 428 l0 -123 30 0 30 0 0 81 c0 68 3 84 20 99 13 11 27 15 44 11
30 -7 39 -42 34 -128 l-3 -60 33 -3 32 -3 0 100 c0 92 -2 101 -25 123 -26 27
-80 34 -116 15 -13 -7 -19 -7 -19 0 0 5 -13 10 -30 10 l-30 0 0 -122z"/>
<path d="M1484 516 c-29 -29 -34 -41 -34 -80 0 -26 7 -60 15 -76 28 -54 107
-77 152 -45 12 8 23 11 25 6 2 -5 17 -11 33 -13 l30 -3 3 123 3 122 -36 0
c-19 0 -35 -5 -35 -10 0 -7 -6 -7 -19 0 -11 5 -38 10 -61 10 -34 0 -48 -6 -76
-34z m144 -43 c17 -24 15 -73 -5 -95 -40 -44 -113 -10 -113 53 0 58 83 87 118
42z"/>
<path d="M1788 488 l49 -62 -51 -65 c-45 -57 -48 -64 -26 -58 14 4 35 7 47 7
14 0 31 13 46 36 l25 35 21 -34 c17 -28 29 -35 63 -40 24 -3 44 -5 45 -3 1 1
-18 28 -42 59 -25 31 -45 60 -45 63 0 4 17 28 37 53 20 25 41 52 46 59 7 9 0
12 -32 12 -37 0 -43 -4 -68 -41 l-26 -40 -26 40 c-24 37 -30 41 -69 41 l-44 0
50 -62z"/>
<path d="M2050 426 l0 -124 33 3 32 2 3 122 3 121 -36 0 -35 0 0 -124z"/>
<path d="M632 105 c-23 -48 -23 -52 8 -33 16 10 24 10 40 0 31 -19 31 -15 8
33 -12 25 -25 45 -28 45 -3 0 -16 -20 -28 -45z"/>
<path d="M770 105 c0 -25 5 -45 10 -45 6 0 10 20 10 45 0 25 -4 45 -10 45 -5
0 -10 -20 -10 -45z"/>
<path d="M960 105 c0 -25 5 -45 10 -45 6 0 10 9 10 20 0 14 7 20 23 21 20 1
20 2 2 6 -34 8 -41 23 -12 23 15 0 27 5 27 10 0 6 -13 10 -30 10 -29 0 -30 -2
-30 -45z"/>
<path d="M1096 134 c-9 -8 -16 -22 -16 -29 0 -7 7 -21 16 -29 30 -30 74 -13
74 29 0 42 -44 59 -74 29z m57 -16 c7 -21 -4 -38 -23 -38 -23 0 -34 16 -26 35
7 18 43 20 49 3z"/>
<path d="M1240 106 c0 -25 5 -46 10 -46 6 0 10 10 10 23 l1 22 18 -22 c20 -24
37 -32 24 -11 -4 7 -7 26 -8 43 0 25 -4 31 -27 33 -27 3 -28 2 -28 -42z"/>
<path d="M1488 139 c-22 -12 -23 -52 -3 -69 21 -18 65 -4 65 20 0 12 -7 20
-16 20 -10 0 -14 -6 -10 -15 3 -10 -1 -15 -13 -15 -10 0 -21 6 -24 13 -8 22 9
40 32 34 25 -6 38 8 15 17 -21 8 -26 7 -46 -5z"/>
<path d="M1620 105 c0 -47 15 -62 23 -22 l4 22 8 -22 c11 -35 23 -27 22 15 -1
39 -10 52 -39 52 -15 0 -18 -9 -18 -45z"/>
<path d="M1771 111 c-13 -24 -19 -46 -15 -49 4 -4 9 -1 11 6 3 6 15 12 28 12
13 0 25 -6 28 -12 2 -7 7 -11 10 -8 3 3 -5 25 -18 50 l-22 44 -22 -43z"/>
<path d="M1911 103 c2 -43 2 -45 8 -15 l6 34 18 -31 c25 -43 37 -39 37 14 0
25 -4 45 -10 45 -5 0 -10 -12 -10 -27 l-1 -28 -17 28 c-24 39 -32 34 -31 -20z"/>
<path d="M2050 105 c0 -25 5 -45 10 -45 6 0 10 15 10 33 l0 32 20 -32 c11 -18
22 -33 25 -33 3 0 4 21 4 48 -1 39 -2 42 -8 17 l-6 -29 -18 27 c-25 39 -37 33
-37 -18z"/>
<path d="M2204 125 c9 -13 16 -33 16 -45 0 -11 5 -20 10 -20 6 0 10 8 10 18 0
10 7 27 15 38 16 22 19 34 7 34 -5 0 -13 -10 -19 -22 l-10 -23 -12 23 c-6 12
-17 22 -23 22 -6 0 -4 -10 6 -25z"/>
<path d="M2343 134 c-4 -11 2 -23 18 -35 l24 -19 -22 0 c-13 0 -23 -4 -23 -10
0 -15 36 -12 49 4 9 11 6 18 -16 35 -27 20 -28 20 -5 21 13 0 20 4 17 10 -10
16 -35 12 -42 -6z"/>
</g>
</svg>
